# Blender v2.76 (sub 0) OBJ File: ''
# www.blender.org
mtllib lowpolymountains.mtl
o Sahne_Plane
v 9.330717 0.040276 0.991477
v 10.471663 -0.000000 0.991477
v 10.471663 0.000000 0.000000
v 9.330709 0.040931 0.000000
v 3.409404 -0.000001 4.957387
v 4.898474 -0.000001 4.957387
v 4.898474 -0.000001 3.965909
v 3.409404 -0.000001 3.965909
v 9.330951 -0.000001 4.957387
v 10.471663 -0.000001 4.957387
v 10.471663 -0.000001 3.965909
v 9.330951 -0.000001 3.965909
v -6.629649 0.073187 4.957387
v -5.012861 0.076757 4.957387
v -5.008451 0.250576 3.965909
v -6.630126 0.028753 3.965909
v -0.991477 0.079363 4.957387
v 0.000000 0.157951 4.957387
v 0.000000 0.280112 3.965909
v -0.991477 0.170717 3.965909
v -3.462836 0.052046 4.957387
v -2.088679 0.056083 4.957387
v -2.088563 0.091747 3.965909
v -3.462593 0.087054 3.965909
v -3.462970 -0.000001 6.940341
v -2.088748 -0.000001 6.940341
v -2.088748 -0.000001 5.948864
v -3.462908 0.035535 5.948864
v -0.991477 -0.000001 6.940341
v 0.000000 -0.000001 6.940341
v 0.000000 0.039125 5.948864
v -0.991477 0.015488 5.948864
v -9.625351 -0.000001 4.957387
v -8.204081 0.004820 4.957387
v -8.204035 0.019052 3.965909
v -9.625351 -0.000001 3.965909
v -9.625351 -0.000001 6.940341
v -8.204083 -0.000001 6.940341
v -8.204083 -0.000001 5.948864
v -9.625351 -0.000001 5.948864
v -6.630214 -0.000001 6.940341
v -5.013318 -0.000001 6.940341
v -5.013309 0.010810 5.948864
v -6.630134 0.027569 5.948864
v -6.627924 0.147368 2.974432
v -5.011669 0.145777 2.974432
v -5.012501 0.155257 1.982955
v -6.622361 0.325743 1.982955
v 6.446795 -0.000001 4.957387
v 7.956807 -0.000001 4.957387
v 7.956807 -0.000001 3.965909
v 6.446795 -0.000001 3.965909
v 6.446795 -0.000001 6.940341
v 7.956807 -0.000001 6.940341
v 7.956807 -0.000001 5.948864
v 6.446795 -0.000001 5.948864
v 9.330951 -0.000001 6.940341
v 10.471663 -0.000001 6.940341
v 10.471663 -0.000001 5.948864
v 9.330951 -0.000001 5.948864
v 0.991477 0.126138 4.957387
v 2.077127 0.032245 4.957387
v 2.077137 0.023981 3.965909
v 0.991477 0.112703 3.965909
v 0.991477 -0.000001 6.940341
v 2.077148 -0.000001 6.940341
v 2.077148 -0.000001 5.948864
v 0.991477 0.019619 5.948864
v 3.409404 -0.000001 6.940341
v 4.898474 -0.000001 6.940341
v 4.898474 -0.000001 5.948864
v 3.409404 -0.000001 5.948864
v 0.991477 0.136104 2.974432
v 2.077114 0.041773 2.974432
v 2.076867 0.120053 1.982955
v 0.991477 0.040623 1.982955
v 3.409174 0.072044 2.974432
v 4.898305 0.049408 2.974432
v 4.897952 0.086850 1.982955
v 3.409403 0.005046 1.982955
v 6.446795 -0.000000 2.974432
v 7.956807 -0.000000 2.974432
v 7.956667 0.034400 1.982955
v 6.446342 0.069456 1.982955
v 9.330951 -0.000000 2.974432
v 10.471663 -0.000000 2.974432
v 10.471663 -0.000000 1.982955
v 9.330951 -0.000000 1.982955
v -3.462372 0.109675 2.974432
v -2.088561 0.092232 2.974432
v -2.087422 0.299193 1.982955
v -3.461909 0.198785 1.982955
v -0.991477 0.199555 2.974432
v 0.000000 0.241682 2.974432
v 0.000000 0.245236 1.982955
v -0.991477 0.084860 1.982955
v 2.077148 -0.000001 7.931819
v 3.409404 -0.000001 7.931819
v 4.898474 -0.000001 7.931819
v 0.000000 -0.000001 7.931819
v 0.991477 -0.000001 7.931819
v 7.956807 -0.000001 7.931819
v 9.330951 -0.000001 7.931819
v 10.471663 -0.000001 7.931819
v 6.446795 -0.000001 7.931819
v -8.203012 0.089646 2.974432
v -10.784443 -0.000000 2.974432
v -9.624953 0.049699 2.974432
v -9.624832 0.109412 1.982955
v -10.784443 0.052665 1.982955
v -10.784443 -0.000001 3.965909
v -8.204083 -0.000001 7.931819
v -6.630214 -0.000001 7.931819
v -5.013318 -0.000001 7.931819
v -10.784443 -0.000001 6.940341
v -10.784443 -0.000001 5.948864
v -10.784443 -0.000001 7.931819
v -9.625351 -0.000001 7.931819
v -10.784443 -0.000001 4.957387
v -2.088748 -0.000001 7.931819
v -0.991477 -0.000001 7.931819
v -3.462970 -0.000001 7.931819
v 7.956192 0.072032 0.991477
v 9.330951 0.000001 -6.940341
v 10.471663 0.000001 -6.940341
v 10.471663 0.000001 -7.931819
v 9.330951 0.000001 -7.931819
v -1.112348 0.014961 -6.940341
v -0.162420 0.020006 -6.940341
v -0.093431 0.011617 -7.931819
v -1.055340 0.008000 -7.931819
v -0.996542 0.214764 0.991477
v -0.013558 0.160799 0.991477
v -0.068404 0.292948 0.000000
v -1.028875 0.084514 0.000000
v 3.395574 0.349748 0.991477
v 4.895092 0.221304 0.991477
v 4.883143 0.280447 0.000000
v 3.362497 0.190477 0.000000
v -6.614128 0.404501 0.991477
v -5.008768 0.255608 0.991477
v -5.016087 0.280220 -0.024249
v -6.601192 0.684773 -0.059495
v -6.629880 0.049390 -6.940341
v -5.008293 0.246537 -6.964591
v -5.013318 0.000001 -7.931819
v -6.630214 0.000001 -7.931819
v -6.599411 3.109848 -3.260086
v -5.197790 1.894472 -3.160771
v -5.108301 1.894699 -4.152248
v -6.617364 0.732618 -4.025404
v 3.281719 0.015973 -6.940341
v 4.845113 0.006754 -6.940341
v 4.878574 0.002572 -7.931819
v 3.339658 0.008721 -7.931819
v 9.328887 0.143727 -2.974432
v 10.471663 0.023790 -2.974432
v 10.471663 0.000001 -3.965909
v 9.330951 0.000679 -3.965909
v 6.263002 1.913414 -3.160771
v 7.945080 0.337537 -2.998682
v 7.904651 0.664121 -4.025404
v 6.063649 3.170398 -4.251564
v 6.437495 0.315989 -0.991477
v 7.938895 0.396371 -0.991477
v 7.937149 0.450228 -1.982955
v 6.422999 0.453793 -2.007204
v 9.330627 0.054663 -0.991477
v 10.471663 0.007181 -0.991477
v 10.471663 0.042429 -1.982955
v 9.330914 0.026456 -1.982955
v 0.700440 1.947505 -3.160771
v 1.810634 0.355241 -2.998682
v 1.786641 0.647474 -4.025404
v 0.797172 2.920987 -4.251564
v 0.814209 0.584447 -0.991477
v 1.919259 0.348768 -0.991477
v 1.869937 0.063206 -1.982955
v 0.748231 0.358800 -2.007204
v 3.309749 0.099676 -0.991477
v 4.861263 0.108557 -0.991477
v 4.817708 0.699145 -2.042450
v 3.255795 0.292677 -2.007204
v 0.808061 0.022549 -6.940341
v 1.900731 0.021701 -6.940341
v 1.973546 0.012858 -7.931819
v 0.882760 0.013481 -7.931819
v 0.693861 1.948760 -5.143725
v 1.799072 0.283842 -4.981637
v 1.841185 0.029477 -5.948864
v 0.720844 0.279685 -5.973114
v 3.234916 1.934482 -5.143725
v 4.690632 3.085825 -5.243041
v 4.812968 0.618924 -6.008359
v 3.238419 0.270997 -5.973114
v -3.570241 0.645482 -3.033927
v -2.218971 0.274209 -2.998682
v -2.401267 1.921350 -4.152248
v -3.765114 3.012874 -4.251564
v -3.490358 0.378003 -1.015727
v -2.149014 0.545802 -0.991477
v -2.170798 0.027689 -1.982955
v -3.578189 0.820460 -2.042450
v -1.086152 0.147682 -0.991477
v -0.129303 0.124468 -0.991477
v -0.245149 0.678454 -2.042450
v -1.163161 0.404586 -2.007204
v -9.614983 0.247120 -2.998682
v -7.937194 1.894451 -3.160771
v -8.184170 0.364660 -3.990159
v -9.625317 -0.007026 -3.965909
v -9.612055 0.286677 -1.015727
v -7.918849 1.894451 -1.177817
v -7.775638 3.070526 -2.268609
v -9.566710 0.604866 -2.042450
v -9.625111 0.031820 -6.940341
v -8.204066 0.004552 -6.940341
v -8.204083 0.000001 -7.931819
v -9.625351 0.000001 -7.931819
v -9.622969 0.116181 -4.957387
v -8.185377 0.369812 -4.957387
v -8.202737 0.083161 -5.948864
v -9.621981 0.127323 -5.948864
v -6.584562 0.739175 -5.016882
v -4.929318 2.926511 -5.243041
v -4.846264 1.894662 -6.135202
v -6.612399 0.393669 -5.973114
v -9.621472 0.168508 0.991477
v -8.162139 0.576506 0.991477
v -8.191992 0.328712 -0.024249
v -9.624279 0.109775 0.000000
v -8.199133 0.245446 1.982955
v 0.971660 0.187192 0.991477
v 2.059582 0.152869 0.991477
v 1.991786 0.414833 0.000000
v 0.912416 0.244307 0.000000
v 6.438721 0.293487 0.991477
v 7.955298 0.112790 0.000000
v 6.432925 0.384925 0.000000
v -3.462165 0.140617 0.991477
v -2.088347 0.148602 0.991477
v -2.101781 0.264555 0.000000
v -3.461798 0.233674 0.000000
v -3.462919 0.607235 -6.999837
v -2.161635 0.255790 -6.964591
v -2.115170 0.003384 -7.931819
v -3.463022 0.000018 -7.931819
v -1.322355 1.934234 -5.143725
v -0.286632 2.856863 -5.243041
v -0.272452 0.638088 -6.008359
v -1.181718 0.269879 -5.973114
v 6.445160 0.000248 -6.940341
v 7.956807 0.000001 -6.940341
v 7.956807 0.000001 -7.931819
v 6.446795 0.000001 -7.931819
v 6.259493 1.902408 -5.143725
v 7.949533 0.246537 -4.981637
v 7.956807 0.000001 -5.948864
v 6.428949 0.248382 -5.973114
v 9.330951 0.000001 -4.957387
v 10.471663 0.000001 -4.957387
v 10.471663 0.000001 -5.948864
v 9.330951 0.000001 -5.948864
v -2.431698 3.021518 -5.243041
v -2.221355 1.916851 -6.135202
v -3.393377 2.959257 -6.234518
v -10.784443 0.013321 0.991477
v -10.784443 0.028203 0.000000
v -10.784443 -0.005430 -4.957387
v -10.784443 -0.017351 -5.948864
v -10.784443 -0.021777 -3.965909
v -10.784443 -0.006921 -6.940341
v -10.784443 0.000001 -7.931819
v -6.568456 3.198519 -1.277130
v -5.164549 1.894451 -1.177817
v -10.784443 0.000000 -0.991477
v -10.784443 0.000000 -1.982955
v -10.784443 -0.005695 -2.974432
v -5.319772 3.288078 -2.268609
v 3.300880 3.188719 -4.251564
v -0.325442 2.839592 -3.260086
v 4.685642 3.416965 -3.260086
v 3.240162 1.933555 -3.160771
v -1.377721 1.932516 -3.160771
v -1.425115 2.634055 -4.251564
v -0.290965 3.155953 -4.390138
v 4.630672 5.980292 -4.213547
v -6.429839 6.278936 -2.407182
v -3.711305 4.846933 -5.381614
vn -0.480400 0.796200 0.367700
vn -0.578300 0.385700 0.718900
vn 0.561400 0.369600 0.740400
vn 0.616600 0.475000 -0.627900
vn 0.525100 0.383100 -0.759900
vn 0.173200 0.964200 0.201000
vn -0.529400 0.721900 -0.445700
vn -0.505100 0.390600 -0.769600
vn -0.571900 0.531000 0.625300
vn 0.508600 0.517000 0.688500
vn -0.606900 0.398900 0.687400
vn -0.524400 0.358500 -0.772300
vn 0.453500 0.707900 -0.541500
vn 0.369000 0.794100 0.483000
vn 0.579200 0.414200 0.702100
vn -0.614000 0.334000 -0.715200
vn 0.560400 0.290800 -0.775500
vn 0.000000 1.000000 0.000000
vn -0.004500 1.000000 -0.008000
vn -0.079200 0.996800 0.004400
vn 0.012700 0.998600 -0.050700
vn 0.167600 0.975200 0.144300
vn -0.061200 0.987000 -0.148900
vn 0.003300 0.594400 -0.804100
vn 0.005000 1.000000 -0.005500
vn 0.052600 0.995100 -0.083700
vn 0.678800 0.622800 0.388900
vn -0.026100 0.995100 0.095200
vn 0.013800 0.999900 0.003600
vn 0.820900 0.477300 0.313500
vn 0.227100 0.940500 -0.252600
vn -0.119600 0.926500 0.356900
vn 0.000700 1.000000 -0.009000
vn 0.549900 0.580600 -0.600400
vn -0.212000 0.346400 -0.913800
vn 0.234100 0.510600 0.827300
vn 0.222900 0.973600 -0.048600
vn -0.116100 0.920900 0.372200
vn -0.463300 0.661200 -0.590100
vn -0.685400 0.622300 0.378100
vn 0.009600 0.999800 -0.018300
vn -0.072400 0.988000 -0.136700
vn -0.677000 0.580300 -0.452700
vn -0.210800 0.966800 -0.144200
vn -0.061300 0.992300 0.107700
vn -0.061900 0.984800 0.162400
vn 0.159900 0.985000 0.065100
vn -0.014100 0.994400 0.104900
vn 0.124300 0.905100 -0.406600
vn -0.295600 0.352800 -0.887800
vn 0.000100 1.000000 -0.000100
vn 0.000000 1.000000 -0.000100
vn 0.418300 0.644200 -0.640300
vn 0.000100 1.000000 -0.000200
vn 0.089500 0.988200 -0.124100
vn 0.307700 0.931700 -0.193000
vn 0.000300 1.000000 -0.000300
vn 0.216600 0.365600 -0.905200
vn 0.710600 0.563500 -0.421300
vn 0.002900 1.000000 -0.002200
vn 0.110700 0.906400 -0.407700
vn 0.081900 0.988800 -0.124600
vn 0.654900 0.457200 -0.601800
vn -0.110300 0.906600 -0.407300
vn -0.217500 0.372300 -0.902300
vn 0.250200 0.357000 -0.900000
vn -0.002400 0.998800 0.049700
vn 0.051500 0.997000 0.058300
vn 0.023100 0.999500 0.021300
vn -0.039200 0.993700 -0.104600
vn -0.056900 0.995500 0.076100
vn -0.017400 0.983900 0.178000
vn 0.083700 0.988000 0.130000
vn 0.154400 0.987000 -0.045800
vn 0.011300 0.995500 0.094400
vn 0.089800 0.995500 0.029700
vn -0.020700 0.995700 0.090500
vn -0.043100 0.985200 0.165800
vn -0.101400 0.994600 -0.021900
vn -0.090900 0.995800 0.009800
vn -0.182100 0.965500 0.186300
vn -0.206400 0.932100 -0.297700
vn -0.226600 0.974000 0.002200
vn -0.686200 0.676500 0.267500
vn -0.113800 0.993500 -0.000400
vn -0.058500 0.995800 0.070000
vn -0.211300 0.975300 0.063800
vn -0.016700 0.999800 -0.012600
vn -0.078700 0.996000 -0.042600
vn 0.025000 0.995900 -0.087500
vn -0.244700 0.500900 0.830200
vn 0.241500 0.488400 0.838500
vn -0.341800 0.929400 0.138900
vn -0.154800 0.985300 0.072100
vn -0.399900 0.739500 0.541500
vn -0.114500 0.984200 -0.135200
vn -0.338600 0.926400 -0.164500
vn -0.721100 0.571200 -0.392100
vn 0.008600 0.991500 -0.129500
vn 0.258300 0.954000 0.152100
vn -0.096000 0.994300 -0.047100
vn 0.655700 0.606100 0.450200
vn 0.328100 0.746700 0.578600
vn -0.073600 0.975000 0.209500
vn 0.023300 0.682600 0.730400
vn 0.686800 0.581100 -0.436600
vn 0.387900 0.921400 0.025100
vn -0.447700 0.605600 -0.657800
vn -0.762100 0.498000 -0.413800
vn 0.294600 0.365300 -0.883000
vn 0.843400 0.414900 -0.341300
vn -0.002300 1.000000 -0.009000
vn 0.170500 0.901500 -0.397700
vn 0.113200 0.985700 -0.124800
vn 0.006700 0.998900 -0.046400
vn 0.168300 0.981800 -0.088300
vn -0.031900 0.991000 -0.130100
vn -0.074200 0.983900 0.162800
vn -0.208000 0.972900 0.100900
vn 0.029500 0.990500 0.134400
vn 0.259400 0.522500 0.812200
vn 0.513300 0.660800 0.547600
vn 0.265000 0.964200 0.012300
vn 0.146200 0.978500 0.145500
vn 0.038700 0.999200 0.010500
vn 0.007600 0.943200 0.332200
vn -0.098600 0.988000 -0.119100
vn 0.062900 0.992300 0.107000
vn 0.235000 0.492200 0.838200
vn 0.368400 0.801200 0.471600
vn 0.288600 0.954000 0.081300
vn 0.217000 0.976200 0.002900
vn 0.045400 0.997700 0.049600
vn -0.729300 0.558400 0.395400
vn -0.395100 0.679100 0.618700
vn -0.248600 0.456400 0.854400
vn 0.003600 1.000000 -0.007900
vn -0.085000 0.986900 -0.136900
vn -0.102200 0.903400 -0.416500
vn -0.595700 0.523700 0.609000
vn -0.591200 0.587700 0.552300
vn -0.249100 0.509500 0.823600
vn -0.248600 0.380400 -0.890800
vn -0.014200 0.999500 -0.027200
vn -0.110700 0.971700 -0.208700
vn -0.359300 0.642600 -0.676700
vn -0.058300 0.998200 0.016200
vn 0.028700 0.978800 0.202900
vn 0.098400 0.991100 0.090100
vn 0.010100 0.998600 0.051200
vn -0.030100 0.981800 0.187400
vn 0.015200 0.971900 0.234700
vn 0.037600 0.999100 0.020800
vn 0.052500 0.998600 -0.008400
vn 0.067600 0.997700 -0.010600
vn -0.053800 0.998300 0.023400
vn 0.111800 0.985900 -0.124600
vn 0.575400 0.579700 -0.576900
vn -0.185900 0.886000 -0.424800
vn 0.035600 0.999400 0.000300
vn -0.069300 0.995500 0.064800
vn -0.093800 0.989900 0.106600
vn -0.003200 0.999400 0.035600
vn 0.012900 0.999800 0.017900
vn -0.011900 0.999500 0.027500
vn -0.008400 0.999900 0.007200
vn 0.005200 0.999800 0.019400
vn 0.053000 0.994100 0.094300
vn 0.083800 0.996400 -0.010900
vn 0.009000 0.999900 0.009900
vn 0.006900 0.999900 -0.008700
vn -0.019900 0.999700 -0.014900
vn 0.011600 0.998600 0.052300
vn -0.029800 0.988600 0.147600
vn -0.101400 0.993300 -0.055700
vn 0.048700 0.997700 0.046500
vn -0.084600 0.996300 0.014700
vn -0.076200 0.997100 -0.004800
vn 0.064300 0.997100 -0.041400
vn 0.004600 0.999900 0.011700
vn 0.012500 0.999800 0.017300
vn 0.021500 0.998300 0.053800
vn 0.015900 0.999600 0.024900
vn 0.031800 0.999500 0.005700
vn -0.002400 0.999000 0.045300
vn 0.007600 0.998100 0.061100
vn 0.136400 0.990600 -0.007500
vn 0.084000 0.996300 0.020700
vn 0.009800 0.999500 0.029600
vn 0.099800 0.993500 0.054500
vn 0.025700 0.993300 0.112900
vn 0.052100 0.996200 0.069700
vn -0.021300 0.995300 0.094900
vn -0.067900 0.997700 0.007000
vn -0.045800 0.997400 0.056500
vn -0.021400 0.999500 0.025000
vn -0.020700 0.998000 0.060500
vn -0.008800 0.999900 0.013900
vn -0.001700 1.000000 0.002400
vn -0.007100 0.999900 0.007800
vn -0.008000 0.999700 0.023400
vn 0.060400 0.992700 0.104700
vn -0.000000 0.999100 0.041500
vn 0.011500 0.999300 0.036600
vn -0.046500 0.996900 0.063900
vn -0.017600 0.998000 0.060400
vn -0.051300 0.994500 0.091600
vn -0.024800 0.999600 -0.015200
vn -0.030400 0.999200 0.025400
vn 0.004100 0.998400 0.056200
vn 0.021100 0.999800 -0.004200
vn 0.012100 0.999800 0.016300
vn 0.024000 0.998900 0.039200
vn 0.017600 0.999600 0.020300
usemtl Kar
s 1
f 284//1 281//1 286//1 285//1
f 283//2 282//2 287//2 280//2
f 274//3 275//3 279//3 288//3
f 289//4 264//4 265//4 266//4
f 287//5 163//5 256//5 193//5
f 198//6 285//6 248//6 264//6
f 285//7 286//7 249//7 248//7
f 225//8 289//8 266//8 226//8
f 150//9 199//9 289//9 225//9
f 199//10 198//10 264//10 289//10
f 213//11 274//11 288//11 214//11
f 280//12 287//12 193//12 192//12
f 286//13 175//13 188//13 249//13
f 281//14 172//14 175//14 286//14
f 282//15 160//15 163//15 287//15
f 214//16 288//16 148//16 209//16
f 288//17 279//17 149//17 148//17
usemtl Dag
f 124//18 125//18 126//18 127//18
f 128//19 129//19 130//19 131//19
f 132//20 133//20 134//20 135//20
f 136//21 137//21 138//21 139//21
f 140//22 141//22 142//22 143//22
f 144//23 145//23 146//23 147//23
f 148//24 149//24 150//24 151//24
f 152//25 153//25 154//25 155//25
f 156//26 157//26 158//26 159//26
f 160//27 161//27 162//27 163//27
f 164//28 165//28 166//28 167//28
f 168//29 169//29 170//29 171//29
f 172//30 173//30 174//30 175//30
f 176//31 177//31 178//31 179//31
f 180//32 181//32 182//32 183//32
f 184//33 185//33 186//33 187//33
f 188//34 189//34 190//34 191//34
f 192//35 193//35 194//35 195//35
f 196//36 197//36 198//36 199//36
f 200//37 201//37 202//37 203//37
f 204//38 205//38 206//38 207//38
f 208//39 209//39 210//39 211//39
f 212//40 213//40 214//40 215//40
f 216//41 217//41 218//41 219//41
f 220//42 221//42 222//42 223//42
f 224//43 225//43 226//43 227//43
f 228//44 229//44 230//44 231//44
f 108//45 106//45 232//45 109//45
f 233//46 234//46 235//46 236//46
f 237//47 123//47 238//47 239//47
f 240//48 241//48 242//48 243//48
f 244//49 245//49 246//49 247//49
f 248//50 249//50 250//50 251//50
f 252//51 253//18 254//52 255//51
f 256//53 257//53 258//53 259//53
f 260//54 261//54 262//18 263//18
f 257//55 260//55 263//55 258//55
f 162//56 159//56 260//56 257//56
f 159//57 158//57 261//54 260//54
f 193//58 256//58 259//58 194//58
f 163//59 162//59 257//59 256//59
f 153//60 252//60 255//60 154//60
f 194//61 259//61 252//61 153//61
f 259//62 258//62 253//62 252//62
f 264//63 248//63 251//63 265//63
f 145//64 244//64 247//64 146//64
f 226//65 266//65 244//65 145//65
f 266//66 265//66 245//66 244//66
f 46//67 89//67 92//67 47//67
f 141//68 240//68 243//68 142//68
f 47//69 92//69 240//69 141//69
f 92//70 91//70 241//70 240//70
f 137//71 237//71 239//71 138//71
f 79//72 84//72 237//72 137//72
f 84//73 83//73 123//73 237//73
f 94//74 73//74 76//74 95//74
f 133//75 233//75 236//75 134//75
f 95//76 76//76 233//76 133//76
f 76//77 75//77 234//77 233//77
f 106//78 45//78 48//78 232//78
f 267//79 228//79 231//79 268//79
f 110//80 109//80 228//80 267//80
f 109//81 232//81 229//81 228//81
f 221//82 224//82 227//82 222//82
f 210//83 151//83 224//83 221//83
f 151//84 150//84 225//84 224//84
f 269//85 220//85 223//85 270//85
f 271//86 211//86 220//86 269//86
f 211//87 210//87 221//87 220//87
f 272//88 216//88 219//88 273//88
f 270//89 223//89 216//89 272//89
f 223//90 222//90 217//90 216//90
f 230//91 143//91 274//91 213//91
f 143//92 142//92 275//92 274//92
f 276//93 212//93 215//93 277//93
f 268//94 231//94 212//94 276//94
f 231//95 230//95 213//95 212//95
f 278//96 208//96 211//96 271//96
f 277//97 215//97 208//97 278//97
f 215//98 214//98 209//98 208//98
f 201//99 204//99 207//99 202//99
f 242//100 135//100 204//100 201//100
f 135//101 134//101 205//101 204//101
f 275//102 200//102 203//102 279//102
f 142//103 243//103 200//103 275//103
f 243//104 242//104 201//104 200//104
f 149//105 196//105 199//105 150//105
f 279//106 203//106 196//106 149//106
f 203//107 202//107 197//107 196//107
f 189//108 192//108 195//108 190//108
f 174//109 280//109 192//109 189//109
f 249//110 188//110 191//110 250//110
f 175//111 174//111 189//111 188//111
f 129//112 184//112 187//112 130//112
f 250//113 191//113 184//113 129//113
f 191//114 190//114 185//114 184//114
f 177//115 180//115 183//115 178//115
f 235//116 139//116 180//116 177//116
f 139//117 138//117 181//117 180//117
f 205//118 176//118 179//118 206//118
f 134//119 236//119 176//119 205//119
f 236//120 235//120 177//120 176//120
f 206//121 179//121 172//121 281//121
f 179//122 178//122 173//122 172//122
f 165//123 168//123 171//123 166//123
f 238//124 4//124 168//124 165//124
f 4//125 3//125 169//125 168//125
f 181//126 164//126 167//126 182//126
f 138//127 239//127 164//127 181//127
f 239//128 238//128 165//128 164//128
f 182//129 167//129 160//129 282//129
f 167//130 166//130 161//130 160//130
f 161//131 156//131 159//131 162//131
f 166//132 171//132 156//132 161//132
f 171//133 170//133 157//133 156//133
f 173//134 283//134 280//134 174//134
f 178//135 183//135 283//135 173//135
f 183//136 182//136 282//136 283//136
f 185//137 152//137 155//137 186//137
f 190//138 195//138 152//138 185//138
f 195//139 194//139 153//139 152//139
f 197//140 284//140 285//140 198//140
f 202//141 207//141 284//141 197//141
f 207//142 206//142 281//142 284//142
f 209//143 148//143 151//143 210//143
f 217//144 144//144 147//144 218//144
f 222//145 227//145 144//145 217//145
f 227//146 226//146 145//146 144//146
f 229//147 140//147 143//147 230//147
f 232//148 48//148 140//148 229//148
f 48//149 47//149 141//149 140//149
f 234//150 136//150 139//150 235//150
f 75//151 80//151 136//151 234//151
f 80//152 79//152 137//152 136//152
f 123//153 1//153 4//153 238//153
f 241//154 132//154 135//154 242//154
f 91//155 96//155 132//155 241//155
f 96//156 95//156 133//156 132//156
f 245//157 128//157 131//157 246//157
f 265//158 251//158 128//158 245//158
f 251//159 250//159 129//159 128//159
f 253//18 124//18 127//18 254//52
f 258//18 263//18 124//18 253//18
f 263//18 262//18 125//18 124//18
usemtl Zemin
f 1//160 2//160 3//160 4//160
f 5//18 6//18 7//18 8//18
f 9//18 10//18 11//18 12//18
f 13//161 14//161 15//161 16//161
f 17//162 18//162 19//162 20//162
f 21//163 22//163 23//163 24//163
f 25//164 26//164 27//164 28//164
f 29//165 30//165 31//165 32//165
f 33//166 34//166 35//166 36//166
f 37//18 38//18 39//18 40//18
f 41//167 42//167 43//167 44//167
f 45//168 46//168 47//168 48//168
f 49//18 50//18 51//18 52//18
f 53//18 54//18 55//18 56//18
f 57//18 58//18 59//18 60//18
f 61//169 62//169 63//169 64//169
f 65//170 66//170 67//170 68//170
f 69//18 70//18 71//18 72//18
f 73//171 74//171 75//171 76//171
f 77//172 78//172 79//172 80//172
f 81//173 82//173 83//173 84//173
f 85//18 86//18 87//18 88//18
f 89//174 90//174 91//174 92//174
f 93//175 94//175 95//175 96//175
f 90//176 93//176 96//176 91//176
f 23//177 20//177 93//177 90//177
f 20//178 19//178 94//178 93//178
f 15//179 24//179 89//179 46//179
f 24//180 23//180 90//180 89//180
f 82//181 85//181 88//181 83//181
f 51//18 12//18 85//18 82//18
f 12//18 11//18 86//18 85//18
f 78//182 81//182 84//182 79//182
f 7//183 52//183 81//183 78//183
f 52//18 51//18 82//18 81//18
f 74//184 77//184 80//184 75//184
f 63//185 8//185 77//185 74//185
f 8//186 7//186 78//186 77//186
f 19//187 64//187 73//187 94//187
f 64//188 63//188 74//188 73//188
f 66//18 69//18 72//18 67//18
f 97//18 98//18 69//18 66//18
f 98//18 99//18 70//18 69//18
f 30//189 65//189 68//189 31//189
f 100//18 101//18 65//18 30//18
f 101//18 97//18 66//18 65//18
f 18//190 61//190 64//190 19//190
f 31//191 68//191 61//191 18//191
f 68//192 67//192 62//192 61//192
f 54//18 57//18 60//18 55//18
f 102//18 103//18 57//18 54//18
f 103//18 104//18 58//18 57//18
f 70//18 53//18 56//18 71//18
f 99//18 105//18 53//18 70//18
f 105//18 102//18 54//18 53//18
f 6//18 49//18 52//18 7//18
f 71//18 56//18 49//18 6//18
f 56//18 55//18 50//18 49//18
f 35//193 16//193 45//193 106//193
f 16//194 15//194 46//194 45//194
f 107//195 108//195 109//195 110//195
f 111//196 36//196 108//196 107//196
f 36//197 35//197 106//197 108//197
f 38//198 41//198 44//198 39//198
f 112//18 113//18 41//18 38//18
f 113//18 114//18 42//18 41//18
f 115//18 37//18 40//18 116//18
f 117//18 118//18 37//18 115//18
f 118//18 112//18 38//18 37//18
f 119//18 33//18 36//18 111//18
f 116//18 40//18 33//18 119//18
f 40//199 39//199 34//199 33//199
f 26//200 29//200 32//200 27//200
f 120//18 121//18 29//18 26//18
f 121//18 100//18 30//18 29//18
f 42//201 25//201 28//201 43//201
f 114//18 122//18 25//18 42//18
f 122//18 120//18 26//18 25//18
f 14//202 21//202 24//202 15//202
f 43//203 28//203 21//203 14//203
f 28//204 27//204 22//204 21//204
f 22//205 17//205 20//205 23//205
f 27//206 32//206 17//206 22//206
f 32//207 31//207 18//207 17//207
f 34//208 13//208 16//208 35//208
f 39//209 44//209 13//209 34//209
f 44//210 43//210 14//210 13//210
f 50//18 9//18 12//18 51//18
f 55//18 60//18 9//18 50//18
f 60//18 59//18 10//18 9//18
f 62//211 5//211 8//211 63//211
f 67//212 72//212 5//212 62//212
f 72//18 71//18 6//18 5//18
f 83//213 88//213 1//213 123//213
f 88//214 87//214 2//214 1//214
