# Blender v2.76 (sub 0) OBJ File: ''
# www.blender.org
mtllib lowpolytree.mtl
o Cylinder
v 0.015674 2.466367 -0.253986
v 0.019167 3.227034 0.022685
v 0.028745 3.227034 0.026171
v 0.199847 2.466368 -0.186952
v 0.033842 3.227034 0.034998
v 0.292234 2.403041 -0.023413
v 0.032072 3.227034 0.045036
v 0.263809 2.466367 0.175798
v 0.024263 3.227034 0.051588
v 0.113670 2.466367 0.301780
v 0.014070 3.227034 0.051588
v -0.087932 2.403041 0.295584
v 0.006262 3.227034 0.045036
v -0.232462 2.466367 0.175798
v 0.004492 3.227034 0.034998
v -0.266496 2.466367 -0.017217
v 0.009589 3.227034 0.026171
v -0.174109 2.403041 -0.193148
v -0.005440 -0.809443 -0.939428
v 0.637348 -0.809443 -0.705472
v 0.979368 -1.003520 -0.113076
v 0.860586 -1.003520 0.560572
v 0.336580 -0.809443 1.000265
v -0.353069 -0.872769 0.994068
v -0.871465 -1.003520 0.560572
v -0.990247 -1.003520 -0.113076
v -0.653837 -1.066847 -0.711668
v -1.162461 -1.054853 -0.150182
v -0.862932 -0.453387 -0.094124
v -0.569643 -0.516713 -0.618026
v -0.766733 -1.118179 -0.851516
v -0.002290 -0.453387 -0.816288
v -0.006855 -1.054853 -1.119851
v -1.023078 -1.054853 0.640299
v -0.759126 -0.453387 0.494589
v -0.413802 -1.118179 1.150053
v -0.306797 -0.516713 0.872648
v 0.394483 -1.054853 1.156250
v 0.296607 -0.453387 0.878845
v 1.009368 -1.054853 0.640300
v 0.754545 -0.453387 0.494589
v 1.143143 -1.118179 -0.156378
v 0.858351 -0.453387 -0.094124
v 0.747414 -1.054853 -0.845319
v 0.559453 -0.453387 -0.611830
v -0.470645 1.692862 -0.047718
v -0.162981 2.516458 0.010068
v -0.106769 2.453131 -0.103204
v -0.309076 1.629535 -0.343475
v 0.015024 2.516458 -0.139296
v 0.010725 1.692862 -0.451635
v -0.412585 1.692862 0.281558
v -0.141511 2.516458 0.131830
v -0.162062 1.629536 0.490282
v -0.052405 2.453131 0.205109
v 0.177903 1.692862 0.496478
v 0.076845 2.516458 0.211305
v 0.434034 1.692862 0.281558
v 0.171559 2.516458 0.131830
v 0.486486 1.629535 -0.053915
v 0.193029 2.516458 0.010068
v 0.324917 1.692862 -0.337279
v 0.131209 2.516458 -0.097008
v 0.005286 0.842699 -0.671042
v 0.010529 1.745409 -0.315061
v 0.242392 1.745409 -0.230669
v 0.463775 0.842699 -0.504165
v 0.365764 1.745409 -0.016983
v 0.702124 0.779372 -0.087815
v 0.322917 1.745409 0.226012
v 0.623007 0.842699 0.398883
v 0.133901 1.745409 0.384616
v 0.249243 0.842699 0.712509
v -0.118452 1.682083 0.378420
v -0.244281 0.779373 0.706312
v -0.301860 1.745409 0.226012
v -0.612436 0.842699 0.398883
v -0.344706 1.745409 -0.016983
v -0.697161 0.842699 -0.081619
v -0.458813 0.779373 -0.510362
v -0.226943 1.682082 -0.236866
v -0.864248 0.078844 -0.105654
v -0.545192 0.894761 -0.046827
v -0.359524 0.831434 -0.384325
v -0.569569 0.015518 -0.631965
v 0.005569 0.894761 -0.508971
v 0.000399 0.078844 -0.831178
v -0.759959 0.078845 0.485799
v -0.478762 0.894761 0.329916
v -0.305499 0.015518 0.865646
v -0.191317 0.831434 0.569622
v 0.300687 0.078845 0.871843
v 0.196847 0.894761 0.575818
v 0.760756 0.078844 0.485799
v 0.489901 0.894761 0.329917
v 0.859436 0.015518 -0.111850
v 0.556331 0.894761 -0.046827
v 0.564756 0.078845 -0.625769
v 0.365054 0.894761 -0.378129
v -0.003388 -0.512941 -0.997131
v 0.001149 0.136518 -0.681816
v 0.474390 0.136519 -0.509570
v 0.669916 -0.512940 -0.752068
v 0.726197 0.136518 -0.073428
v 1.022565 -0.576267 -0.137744
v 0.638746 0.136519 0.422534
v 0.903752 -0.512940 0.574081
v 0.252955 0.136519 0.746250
v 0.354870 -0.512940 1.034648
v -0.256267 0.073192 0.740054
v -0.367254 -0.576267 1.028452
v -0.636448 0.136519 0.422534
v -0.910528 -0.512940 0.574081
v -0.723899 0.136518 -0.073428
v -1.034949 -0.512941 -0.131548
v -0.682301 -0.576267 -0.758265
v -0.477702 0.073192 -0.515766
v -0.018886 -1.314390 -0.264436
v -0.018886 -0.720161 -0.373037
v 0.231064 -0.720161 -0.282063
v 0.161257 -1.314390 -0.198870
v 0.364060 -0.720161 -0.051708
v 0.257109 -1.314390 -0.032850
v 0.317871 -0.720161 0.210242
v 0.223820 -1.314390 0.155942
v 0.114110 -0.720161 0.381218
v 0.076966 -1.314390 0.279167
v -0.151881 -0.720161 0.381218
v -0.114738 -1.314390 0.279166
v -0.355642 -0.720161 0.210242
v -0.261591 -1.314390 0.155942
v -0.401831 -0.720161 -0.051708
v -0.294880 -1.314390 -0.032850
v -0.268836 -0.720161 -0.282063
v -0.199028 -1.314390 -0.198870
v -0.018886 -1.895607 -0.373037
v 0.231064 -1.895607 -0.282063
v 0.364060 -1.895607 -0.051708
v 0.317871 -1.895607 0.210242
v 0.114110 -1.895607 0.381218
v -0.151881 -1.895607 0.381218
v -0.355642 -1.895607 0.210242
v -0.401831 -1.895607 -0.051708
v -0.268836 -1.895607 -0.282063
vn 0.323800 0.322100 -0.889600
vn 0.873000 0.302200 -0.382700
vn 0.953600 0.297100 0.047700
vn 0.610900 0.311200 0.728000
vn -0.116400 0.296500 0.947900
vn -0.531300 0.301500 0.791700
vn -0.932700 0.321000 0.164500
vn 0.000000 1.000000 -0.000000
vn -0.380900 0.316900 -0.868600
vn -0.789800 0.316600 -0.525300
vn 0.041500 -0.999100 0.002400
vn -0.766700 0.431000 -0.475700
vn -0.335600 0.430400 -0.837900
vn -0.889800 0.428500 0.156900
vn -0.551100 0.423000 0.719300
vn -0.045500 0.418700 0.907000
vn 0.584400 0.416300 0.696500
vn 0.907900 0.396000 0.137600
vn 0.802300 0.402500 -0.440800
vn 0.309300 0.426600 -0.849900
vn -0.783800 0.337000 -0.521700
vn -0.378300 0.336700 -0.862300
vn -0.927900 0.335100 0.163600
vn -0.527700 0.328800 0.783200
vn -0.112700 0.325600 0.938800
vn 0.607800 0.325400 0.724400
vn 0.943700 0.312200 0.109300
vn 0.844400 0.317300 -0.431700
vn 0.322400 0.334200 -0.885700
vn 0.320900 0.345800 -0.881700
vn 0.832500 0.330400 -0.444700
vn 0.936600 0.326000 0.128300
vn 0.604700 0.339000 0.720700
vn -0.073500 0.340900 0.937200
vn -0.553400 0.344100 0.758500
vn -0.923000 0.348700 0.162700
vn -0.357900 0.349000 -0.866100
vn -0.790600 0.350000 -0.502400
vn -0.795700 0.350700 -0.493900
vn -0.348600 0.349600 -0.869600
vn -0.922800 0.349100 0.162700
vn -0.566400 0.344600 0.748700
vn -0.055100 0.340800 0.938500
vn 0.604800 0.338500 0.720800
vn 0.935900 0.324300 0.137500
vn 0.829000 0.329300 -0.452000
vn 0.320900 0.346100 -0.881600
vn 0.311400 0.413300 -0.855700
vn 0.807700 0.391000 -0.441200
vn 0.912900 0.384900 0.135700
vn 0.588100 0.403500 0.700900
vn -0.050900 0.405600 0.912600
vn -0.551300 0.409600 0.726800
vn -0.896000 0.415000 0.158000
vn -0.340400 0.416800 -0.842900
vn -0.770800 0.417400 -0.481200
vn 0.182400 -0.862800 0.471500
vn 0.434600 -0.856700 0.277800
vn 0.451100 -0.888900 -0.079500
vn 0.033800 -0.816400 -0.576500
vn 0.332600 -0.824000 -0.458600
vn -0.304900 -0.880400 -0.363300
vn -0.650200 -0.758200 0.048500
vn -0.618900 -0.766100 0.173400
vn -0.143900 -0.907200 0.395400
vn -0.129500 -0.925500 0.355900
vn -0.535900 -0.819600 0.202800
vn -0.587300 -0.809300 -0.008200
vn -0.269100 -0.908100 -0.320700
vn 0.198400 -0.887000 -0.417000
vn 0.115600 -0.885800 -0.449500
vn 0.398700 -0.914400 -0.070300
vn 0.303300 -0.907700 0.290100
vn 0.229600 -0.909100 0.347700
vn 0.213700 -0.937900 0.273300
vn 0.232200 -0.937700 0.258600
vn 0.335600 -0.940100 -0.059200
vn 0.120800 -0.925500 -0.359000
vn 0.137900 -0.925700 -0.352300
vn -0.226300 -0.936000 -0.269700
vn -0.512900 -0.858100 -0.023500
vn -0.461800 -0.865900 0.192000
vn -0.110700 -0.946200 0.304100
vn -0.130200 -0.924700 0.357700
vn -0.503100 -0.832000 0.233900
vn -0.569500 -0.820500 -0.049400
vn -0.266000 -0.910400 -0.317000
vn 0.107200 -0.903800 -0.414400
vn 0.183900 -0.904700 -0.384400
vn 0.392700 -0.917000 -0.069200
vn 0.223200 -0.920100 0.321800
vn 0.279900 -0.919300 0.276500
vn 0.243400 -0.939800 0.240100
vn 0.193800 -0.940200 0.280100
vn 0.338100 -0.939200 -0.059600
vn 0.157200 -0.930900 -0.329700
vn 0.092200 -0.930300 -0.355000
vn -0.228200 -0.934800 -0.272000
vn -0.498900 -0.865600 -0.043200
vn -0.442200 -0.873000 0.205700
vn -0.113300 -0.943500 0.311400
vn -0.281700 -0.567300 0.773800
vn -0.696600 -0.665800 0.267300
vn -0.464800 -0.884400 -0.041800
vn -0.511600 -0.723900 -0.462700
vn 0.052300 -0.535900 -0.842700
vn 0.463500 -0.730300 -0.501900
vn 0.295600 -0.953900 -0.052100
vn 0.366300 -0.744100 0.558700
vn 0.211800 -0.954000 0.212200
vn 0.337100 -0.169300 -0.926100
vn 0.853500 -0.169300 -0.492800
vn 0.970600 -0.169300 0.171100
vn 0.633500 -0.169300 0.755000
vn -0.000000 -0.169300 0.985600
vn -0.633500 -0.169300 0.755000
vn -0.970600 -0.169300 0.171100
vn -0.337100 -0.169300 -0.926100
vn -0.853500 -0.169300 -0.492800
vn 0.000000 -1.000000 -0.000000
vn -0.853000 0.172900 -0.492500
vn -0.336900 0.172900 -0.925500
vn -0.970000 0.172900 0.171000
vn -0.633100 0.172900 0.754500
vn -0.000000 0.172900 0.984900
vn 0.633100 0.172900 0.754500
vn 0.970000 0.172900 0.171000
vn 0.853000 0.172900 -0.492500
vn 0.336900 0.172900 -0.925500
usemtl Leaves
s 1
f 1//1 2//1 3//1 4//1
f 4//2 3//2 5//2 6//2
f 6//3 5//3 7//3 8//3
f 8//4 7//4 9//4 10//4
f 10//5 9//5 11//5 12//5
f 12//6 11//6 13//6 14//6
f 14//7 13//7 15//7 16//7
f 3//8 2//8 17//8 15//8 13//8 11//8 9//8 7//8 5//8
f 18//9 17//9 2//9 1//9
f 16//10 15//10 17//10 18//10
f 19//11 20//11 21//11 22//11 23//11 24//11 25//11 26//11 27//11
f 28//12 29//12 30//12 31//12
f 31//13 30//13 32//13 33//13
f 34//14 35//14 29//14 28//14
f 36//15 37//15 35//15 34//15
f 38//16 39//16 37//16 36//16
f 40//17 41//17 39//17 38//17
f 42//18 43//18 41//18 40//18
f 44//19 45//19 43//19 42//19
f 33//20 32//20 45//20 44//20
f 46//21 47//21 48//21 49//21
f 49//22 48//22 50//22 51//22
f 52//23 53//23 47//23 46//23
f 54//24 55//24 53//24 52//24
f 56//25 57//25 55//25 54//25
f 58//26 59//26 57//26 56//26
f 60//27 61//27 59//27 58//27
f 62//28 63//28 61//28 60//28
f 51//29 50//29 63//29 62//29
f 64//30 65//30 66//30 67//30
f 67//31 66//31 68//31 69//31
f 69//32 68//32 70//32 71//32
f 71//33 70//33 72//33 73//33
f 73//34 72//34 74//34 75//34
f 75//35 74//35 76//35 77//35
f 77//36 76//36 78//36 79//36
f 80//37 81//37 65//37 64//37
f 79//38 78//38 81//38 80//38
f 82//39 83//39 84//39 85//39
f 85//40 84//40 86//40 87//40
f 88//41 89//41 83//41 82//41
f 90//42 91//42 89//42 88//42
f 92//43 93//43 91//43 90//43
f 94//44 95//44 93//44 92//44
f 96//45 97//45 95//45 94//45
f 98//46 99//46 97//46 96//46
f 87//47 86//47 99//47 98//47
f 100//48 101//48 102//48 103//48
f 103//49 102//49 104//49 105//49
f 105//50 104//50 106//50 107//50
f 107//51 106//51 108//51 109//51
f 109//52 108//52 110//52 111//52
f 111//53 110//53 112//53 113//53
f 113//54 112//54 114//54 115//54
f 116//55 117//55 101//55 100//55
f 115//56 114//56 117//56 116//56
f 47//57 16//57 18//57 48//57
f 48//58 18//58 1//58 50//58
f 53//59 14//59 16//59 47//59
f 55//60 12//60 14//60 53//60
f 57//61 10//61 12//61 55//61
f 59//62 8//62 10//62 57//62
f 61//63 6//63 8//63 59//63
f 63//64 4//64 6//64 61//64
f 50//65 1//65 4//65 63//65
f 65//66 51//66 62//66 66//66
f 66//67 62//67 60//67 68//67
f 68//68 60//68 58//68 70//68
f 70//69 58//69 56//69 72//69
f 72//70 56//70 54//70 74//70
f 74//71 54//71 52//71 76//71
f 76//72 52//72 46//72 78//72
f 81//73 49//73 51//73 65//73
f 78//74 46//74 49//74 81//74
f 83//75 79//75 80//75 84//75
f 84//76 80//76 64//76 86//76
f 89//77 77//77 79//77 83//77
f 91//78 75//78 77//78 89//78
f 93//79 73//79 75//79 91//79
f 95//80 71//80 73//80 93//80
f 97//81 69//81 71//81 95//81
f 99//82 67//82 69//82 97//82
f 86//83 64//83 67//83 99//83
f 101//84 87//84 98//84 102//84
f 102//85 98//85 96//85 104//85
f 104//86 96//86 94//86 106//86
f 106//87 94//87 92//87 108//87
f 108//88 92//88 90//88 110//88
f 110//89 90//89 88//89 112//89
f 112//90 88//90 82//90 114//90
f 117//91 85//91 87//91 101//91
f 114//92 82//92 85//92 117//92
f 29//93 115//93 116//93 30//93
f 30//94 116//94 100//94 32//94
f 35//95 113//95 115//95 29//95
f 37//96 111//96 113//96 35//96
f 39//97 109//97 111//97 37//97
f 41//98 107//98 109//98 39//98
f 43//99 105//99 107//99 41//99
f 45//100 103//100 105//100 43//100
f 32//101 100//101 103//101 45//101
f 19//102 33//102 44//102 20//102
f 20//103 44//103 42//103 21//103
f 21//104 42//104 40//104 22//104
f 22//105 40//105 38//105 23//105
f 23//106 38//106 36//106 24//106
f 24//107 36//107 34//107 25//107
f 25//108 34//108 28//108 26//108
f 27//109 31//109 33//109 19//109
f 26//110 28//110 31//110 27//110
usemtl Bark
f 118//111 119//111 120//111 121//111
f 121//112 120//112 122//112 123//112
f 123//113 122//113 124//113 125//113
f 125//114 124//114 126//114 127//114
f 127//115 126//115 128//115 129//115
f 129//116 128//116 130//116 131//116
f 131//117 130//117 132//117 133//117
f 120//8 119//8 134//8 132//8 130//8 128//8 126//8 124//8 122//8
f 135//118 134//118 119//118 118//118
f 133//119 132//119 134//119 135//119
f 136//120 137//120 138//120 139//120 140//120 141//120 142//120 143//120 144//120
f 143//121 133//121 135//121 144//121
f 144//122 135//122 118//122 136//122
f 142//123 131//123 133//123 143//123
f 141//124 129//124 131//124 142//124
f 140//125 127//125 129//125 141//125
f 139//126 125//126 127//126 140//126
f 138//127 123//127 125//127 139//127
f 137//128 121//128 123//128 138//128
f 136//129 118//129 121//129 137//129
